<?xml version="1.0" encoding="UTF-8" standalone="no"?>
<!-- Created with Inkscape (http://www.inkscape.org/) -->

<svg
   width="67.668999mm"
   height="67.668571mm"
   viewBox="0 0 67.668999 67.668571"
   version="1.1"
   id="svg1"
   xml:space="preserve"
   xmlns:xlink="http://www.w3.org/1999/xlink"
   xmlns="http://www.w3.org/2000/svg"
   xmlns:svg="http://www.w3.org/2000/svg"><defs
     id="defs1" /><g
     id="layer4"
     transform="translate(-30.527669,-126.31723)"
     style="display:none"><ellipse
       style="display:inline;opacity:1;fill:#ffffff;fill-opacity:1;fill-rule:evenodd;stroke:#ffffff;stroke-width:0.165;stroke-linecap:square;stroke-miterlimit:5.1;stroke-opacity:1;paint-order:fill markers stroke"
       id="CirculoFondo"
       cx="64.362167"
       cy="160.15152"
       rx="33.301998"
       ry="33.301785" /><circle
       style="display:inline;opacity:0.97;fill:none;fill-opacity:0.972549;stroke:#0057b8;stroke-width:18;stroke-linecap:square;stroke-miterlimit:5.1;stroke-dasharray:none;stroke-opacity:1;paint-order:fill markers stroke"
       id="CirculoAzul"
       cx="64.264954"
       cy="159.49304"
       r="37.674953" /><circle
       style="display:inline;opacity:0.97;fill:none;fill-opacity:0.972549;stroke:#e5e7ff;stroke-width:1.04014;stroke-linecap:square;stroke-miterlimit:5.1;stroke-dasharray:none;stroke-opacity:1;paint-order:fill markers stroke"
       id="CirculoExterior"
       cx="64.264946"
       cy="159.49304"
       r="45.537643" /><circle
       style="display:inline;opacity:0.97;fill:none;fill-opacity:0.972549;stroke:#e5e7ff;stroke-width:0.678894;stroke-linecap:square;stroke-miterlimit:5.1;stroke-dasharray:none;stroke-opacity:1;paint-order:fill markers stroke"
       id="CirculoInterior"
       cx="64.139305"
       cy="159.55447"
       r="29.722185" /><g
       id="g1"
       style="display:none"><path
         style="display:inline;fill:none;stroke:#0bfbfb;stroke-width:0.264583px;stroke-linecap:butt;stroke-linejoin:miter;stroke-opacity:1"
         d="m 100.27953,159.02537 c 1.22392,-24.3257 21.08212,-32.61679 33.33077,-32.23222 9.839,0.30892 31.98727,5.83617 33.64697,31.85803"
         id="path146"
         transform="translate(-69.222806,1.122532)" /><text
         xml:space="preserve"
         style="font-weight:900;font-size:9.87778px;line-height:1.25;font-family:Poppins;-inkscape-font-specification:'Poppins Heavy';display:inline;fill:#e5e7ff;fill-opacity:1;stroke:#000000;stroke-width:0.264583;stroke-opacity:1"
         id="Text_TheSlowRoadBack"
         transform="rotate(1.0592606,206.29162,139.14108)"><textPath
           xlink:href="#path146"
           id="textPath146"
           style="font-size:9.87778px;fill:#e5e7ff;fill-opacity:1;stroke:#000000;stroke-opacity:1">The Slow Road Back</textPath></text></g><path
       style="display:none;fill:none;stroke:#600000;stroke-width:0.405984px;stroke-linecap:butt;stroke-linejoin:miter;stroke-opacity:1"
       d="m 19.901304,192.80366 c 10.135304,24.90638 29.536667,31.31546 46.780507,28.49909 17.135166,-2.79863 33.297039,-17.94952 36.626349,-41.89387"
       id="path147" /><text
       xml:space="preserve"
       style="font-weight:900;font-size:8.22152px;line-height:1.25;font-family:Poppins;-inkscape-font-specification:'Poppins Heavy';display:inline;fill:#e5e7ff;fill-opacity:1;stroke-width:0.264583"
       id="Text_Ridding4GBS"
       transform="matrix(0.83415512,-0.26660633,0.26660633,0.83415512,-33.570089,28.788832)"><textPath
         xlink:href="#path147"
         id="textPath147"
         style="font-style:normal;font-variant:normal;font-weight:normal;font-stretch:normal;font-size:8.22152px;font-family:Lora;-inkscape-font-specification:Lora;fill:#e5e7ff;fill-opacity:1;stroke-width:0.264583"># R I D I N G 4 G B S</textPath></text><g
       id="g78"><path
         style="fill:none;stroke:#e5e7ff;stroke-width:0.5;stroke-linecap:butt;stroke-linejoin:miter;stroke-dasharray:none;stroke-opacity:1"
         d="m 21.091727,169.26045 c 0,0 1.086288,-2.03375 1.86315,-4.63862 0.519764,-1.74281 1.315549,-3.56362 2.524034,-4.78667 0.757523,-0.76665 3.540858,5.61666 3.540858,5.61666 m -0.640985,-1.31361 c 0,0 1.605576,-2.63208 2.291836,-1.96444 0.895671,0.87137 1.866771,2.40212 2.533875,4.02153 0.894667,2.17182 1.480506,2.41309 1.480506,2.41309"
         id="path7" /><path
         style="display:inline;fill:#e5e7ff;fill-opacity:1;stroke:#e5e7ff;stroke-width:0.264583px;stroke-linecap:butt;stroke-linejoin:miter;stroke-opacity:1"
         d="m 23.654795,163.15599 1.216077,-0.60804 1.028987,0.79512 0.795128,-0.51449 1.309621,0.60804 c 0,0 -1.604748,-3.12619 -2.338608,-3.41437 -0.878419,-0.34495 -2.011205,3.13374 -2.011205,3.13374 z"
         id="path8" /><path
         style="display:inline;fill:#e5e7ff;fill-opacity:1;stroke:#e5e7ff;stroke-width:0.264583px;stroke-linecap:butt;stroke-linejoin:miter;stroke-opacity:1"
         d="m 28.776348,163.90434 0.982216,0.37418 0.631422,-0.58465 1.590256,0.53788 c -0.535644,-0.60276 -0.73042,-1.99424 -1.590255,-2.0346 -0.782176,-0.0367 -1.613639,1.70719 -1.613639,1.70719 z"
         id="path78" /></g><g
       id="g96"
       transform="matrix(-1,0,0,1,128.73541,0)"><path
         style="fill:none;stroke:#e5e7ff;stroke-width:0.5;stroke-linecap:butt;stroke-linejoin:miter;stroke-dasharray:none;stroke-opacity:1"
         d="m 21.091727,169.26045 c 0,0 1.086288,-2.03375 1.86315,-4.63862 0.519764,-1.74281 1.315549,-3.56362 2.524034,-4.78667 0.757523,-0.76665 3.540858,5.61666 3.540858,5.61666 m -0.640985,-1.31361 c 0,0 1.605576,-2.63208 2.291836,-1.96444 0.895671,0.87137 1.866771,2.40212 2.533875,4.02153 0.894667,2.17182 1.480506,2.41309 1.480506,2.41309"
         id="path79" /><path
         style="display:inline;fill:#e5e7ff;fill-opacity:1;stroke:#e5e7ff;stroke-width:0.264583px;stroke-linecap:butt;stroke-linejoin:miter;stroke-opacity:1"
         d="m 23.654795,163.15599 1.216077,-0.60804 1.028987,0.79512 0.795128,-0.51449 1.309621,0.60804 c 0,0 -1.604748,-3.12619 -2.338608,-3.41437 -0.878419,-0.34495 -2.011205,3.13374 -2.011205,3.13374 z"
         id="path95" /><path
         style="display:inline;fill:#e5e7ff;fill-opacity:1;stroke:#e5e7ff;stroke-width:0.264583px;stroke-linecap:butt;stroke-linejoin:miter;stroke-opacity:1"
         d="m 28.776348,163.90434 0.982216,0.37418 0.631422,-0.58465 1.590256,0.53788 c -0.535644,-0.60276 -0.73042,-1.99424 -1.590255,-2.0346 -0.782176,-0.0367 -1.613639,1.70719 -1.613639,1.70719 z"
         id="path96" /></g><path
       style="display:none;fill:none;stroke:#000000;stroke-width:0.771;stroke-linecap:butt;stroke-linejoin:miter;stroke-dasharray:none;stroke-opacity:1"
       d="m 31.213513,155.33481 c 15.226501,-45.59652 60.83064,-29.20736 65.401749,0.45277"
       id="path1" /><text
       xml:space="preserve"
       style="font-size:8.81944px;line-height:1.25;font-family:sans-serif;text-align:center;text-anchor:middle;fill:#e5e7ff;fill-opacity:1;stroke:#161c2b;stroke-width:0.265;stroke-dasharray:none;stroke-opacity:0.992157"
       id="text1"
       transform="matrix(1.0650602,-0.01414105,0.01526347,1.149597,-6.282288,-20.042623)"><textPath
         xlink:href="#path1"
         startOffset="50%"
         id="textPath1"><tspan
           id="tspan1"
           style="font-style:normal;font-variant:normal;font-weight:900;font-stretch:normal;font-size:8.81944px;font-family:Poppins;-inkscape-font-specification:'Poppins Heavy';fill:#e5e7ff;fill-opacity:1;stroke:#161c2b;stroke-width:0.265;stroke-dasharray:none;stroke-opacity:0.992157">The Slow Road Back</tspan></textPath></text></g><g
     id="g177"
     style="display:inline"
     transform="translate(-5.4357361,-13.358955)"><ellipse
       style="display:inline;opacity:1;fill:#ffffff;fill-opacity:1;fill-rule:evenodd;stroke:#0057b8;stroke-width:1.065;stroke-linecap:square;stroke-miterlimit:5.1;stroke-dasharray:none;stroke-opacity:1;paint-order:fill markers stroke"
       id="ellipse1"
       cx="64.362167"
       cy="160.15152"
       rx="33.301998"
       ry="33.301785"
       transform="translate(-25.091933,-112.95828)" /><path
       style="fill:#111827;fill-opacity:1;stroke:#111827;stroke-width:0.0529167;stroke-linecap:butt;stroke-linejoin:miter;stroke-dasharray:none;stroke-opacity:1"
       d="m 34.738331,45.838387 h -3.009635 c 0,0 -0.463021,1.71979 2.678906,1.81901 0.463025,1.22368 0.826821,2.41432 0.826821,2.41432 0,0 -3.435308,4.918201 -5.1263,7.342156 -2.014832,-0.10526 -2.308379,1.549871 -1.322917,2.480455 0.636071,0.600647 2.083594,0.13229 2.182813,-0.760674 0.09922,-0.892967 -0.396875,-1.223694 -0.396875,-1.223694 l 4.994009,-6.746831 1.25677,4.630183 1.09141,-0.363807 -1.65365,-5.060128 9.82266,-0.7276 -0.19844,-0.8599 -9.78958,0.66146 -0.62839,-2.14974 1.55443,-0.42995 z"
       id="path163" /><path
       style="fill:#111827;fill-opacity:1;stroke:#111827;stroke-width:0.0529167;stroke-linecap:butt;stroke-linejoin:miter;stroke-dasharray:none;stroke-opacity:1"
       d="m 39.699273,57.97611 6.48229,-8.003613 -1.15755,-3.24114 1.62057,0.19844 -0.0662,0.7276 1.9513,5.886967 c 0.81876,2.242098 1.24226,2.697145 1.91823,3.935659 0.89023,-0.31884 1.87306,1.418931 0.39688,1.984358 -0.67736,0.25945 -1.5728,-0.502207 -1.19063,-1.422131 -0.77125,-1.265504 -2.97656,-7.077561 -2.97656,-7.077561 l -6.44922,7.639798 z"
       id="path164" /><path
       style="fill:#111827;fill-opacity:1;stroke:#111827;stroke-width:0.0529167;stroke-linecap:butt;stroke-linejoin:miter;stroke-dasharray:none;stroke-opacity:1"
       d="m 47.041453,49.774067 0.42995,1.058332 c 0,0 1.85208,-1.058332 1.15755,-2.711982 -0.69453,-1.65365 0.69453,-1.32292 0.69453,-1.32292 1.1478,-1.10652 5.45671,1.6926 0.79376,2.67891 -0.89087,0.18843 -0.24197,1.10567 1.12447,0.8599 1.15362,-0.20749 3.92161,-3.40495 -0.29765,-4.79558 -1.60077,-0.5276 -2.14974,0.23151 -2.14974,0.23151 l -1.35599,1.68672 0.26458,0.62839 c 0,0 0.3638,1.5875 -0.66146,1.68672 z"
       id="path165" /><path
       style="fill:none;stroke:#000000;stroke-width:0.264583px;stroke-linecap:butt;stroke-linejoin:miter;stroke-opacity:1"
       d="m 48.860463,58.14147 -2.84427,-1.058324"
       id="path166" /><path
       style="fill:none;stroke:#000000;stroke-width:0.264583px;stroke-linecap:butt;stroke-linejoin:miter;stroke-opacity:1"
       d="m 49.521923,59.728961 -2.44739,2.612745"
       id="path167" /><path
       style="fill:none;stroke:#000000;stroke-width:0.264583px;stroke-linecap:butt;stroke-linejoin:miter;stroke-opacity:1"
       d="m 50.844843,60.125838 1.25677,3.141912"
       id="path168" /><path
       style="fill:none;stroke:#000000;stroke-width:0.264583px;stroke-linecap:butt;stroke-linejoin:miter;stroke-opacity:1"
       d="m 52.068543,57.182363 1.98437,-2.083578"
       id="path169" /><path
       style="fill:none;stroke:#000000;stroke-width:0.264583px;stroke-linecap:butt;stroke-linejoin:miter;stroke-opacity:1"
       d="m 52.399273,58.968294 2.87734,1.025254"
       id="path170" /><circle
       style="display:inline;opacity:0.97;fill:none;fill-opacity:1;stroke:#111827;stroke-width:1.32292;stroke-linecap:square;stroke-miterlimit:5.1;stroke-dasharray:none;stroke-opacity:1;paint-order:fill markers stroke"
       id="circle170"
       cx="50.484612"
       cy="58.644066"
       r="7.0042644" /><circle
       style="display:inline;opacity:0.97;fill:none;fill-opacity:1;stroke:#111827;stroke-width:1.32292;stroke-linecap:square;stroke-miterlimit:5.1;stroke-dasharray:none;stroke-opacity:1;paint-order:fill markers stroke"
       id="circle171"
       cx="29.901541"
       cy="58.850563"
       r="7.0042644" /><path
       style="fill:none;stroke:#000000;stroke-width:0.264583px;stroke-linecap:butt;stroke-linejoin:miter;stroke-opacity:1"
       d="m 26.933123,54.172741 1.686719,2.513535"
       id="path171" /><path
       style="fill:none;stroke:#000000;stroke-width:0.264583px;stroke-linecap:butt;stroke-linejoin:miter;stroke-opacity:1"
       d="m 31.100311,60.522705 0.562239,0.628387"
       id="path172" /><path
       style="fill:none;stroke:#000000;stroke-width:0.264583px;stroke-linecap:butt;stroke-linejoin:miter;stroke-opacity:1"
       d="m 32.324008,62.010986 0.992188,1.355974"
       id="path173" /><path
       style="fill:#111827;fill-opacity:1;stroke:#000000;stroke-width:0.258034px;stroke-linecap:butt;stroke-linejoin:miter;stroke-opacity:1"
       d="m 30.575898,57.475713 h 6.314455 v 0.537757 l -6.593034,-0.0672 z"
       id="path174" /><path
       style="fill:#111827;fill-opacity:1;stroke:#000000;stroke-width:0.264583px;stroke-linecap:butt;stroke-linejoin:miter;stroke-opacity:1"
       d="m 30.8688,58.538347 1.819011,0.0331 0.264583,0.231507 1.752864,0.0331 0.198438,0.19843 1.686717,0.0992 -0.13229,0.926034 -1.38906,-0.23151 -0.0662,-0.231507 h -1.587498 l -0.198438,-0.19844 -2.645833,-0.165357 z"
       id="path175" /><path
       style="fill:#111827;fill-opacity:1;stroke:#000000;stroke-width:0.264583px;stroke-linecap:butt;stroke-linejoin:miter;stroke-opacity:1"
       d="m 29.413592,59.762041 v 0.694524 l -0.496094,0.562237 c 0,0 -0.165365,0.793747 0.429948,0.760667 0.595312,-0.0331 9.227347,0.297657 9.227347,0.297657 l 0.89297,-0.0992 0.26458,-0.297647 0.82682,-0.826827 -0.0331,-2.678902 -1.32292,1.752848 -0.39687,-0.595307 h -2.14974 l 0.46302,0.529167 1.45521,0.661457 0.56224,0.429937 0.0661,0.23151 -1.42213,-0.0331 -0.89297,-0.826817 -0.69453,1.256764 -6.316928,-0.264577 0.562239,-0.727607 0.06615,-0.694527 -0.363802,-0.330727 z"
       id="path176" /><path
       style="fill:#111827;fill-opacity:1;stroke:#000000;stroke-width:0.264583px;stroke-linecap:butt;stroke-linejoin:miter;stroke-opacity:1"
       d="m 22.608384,65.706595 34.798489,0.0468 c 0,0 0.67688,0.0844 0.65481,0.32741 -0.0455,0.501197 -1.44993,0.420947 -1.44993,0.420947 l -33.16147,0.0468 c 0,0 -1.247479,0.082 -1.356392,-0.37418 -0.05382,-0.225447 0.514493,-0.467777 0.514493,-0.467777 z"
       id="path177" /></g><g
     id="g111"
     transform="translate(-70.961126,-20.192565)"
     style="display:inline"><path
       style="fill:#e5e7ff;fill-opacity:1;stroke:none;stroke-width:0.0264583;stroke-linecap:butt;stroke-linejoin:miter;stroke-dasharray:none;stroke-opacity:1"
       d="m 96.440624,40.878093 -2.711979,-0.264583 -0.859896,0.06615 0.396875,0.595312 0.06615,0.529167 -2.315104,1.785937 2.645833,-1.058333 1.521354,-0.661458 2.447396,0.396875 0.859896,1.455208 -1.058334,1.422135 -2.579687,1.785938 -1.35599,1.620573 -0.03307,0.926041 -0.694531,0.363803 -0.926042,2.149735 0.264584,0.992174 -0.595313,0.529167 -0.429948,1.289834 0.198438,1.223694 0.496094,0.529167 0.826823,-0.16537 c 0,0 0.363802,-1.025254 0.363802,-1.157544 0,-0.13229 0.132291,-1.719781 0.132291,-1.719781 l -0.330729,-0.628374 0.496094,-0.36381 0.959114,-2.348163 -0.03307,-0.529167 0.694532,-0.396875 2.414323,-2.513542 1.752864,-1.389062 h 1.355986 l 0.8599,0.529167 -0.99219,0.959114 -0.760675,1.389063 0.06615,2.976562 0.562235,1.422123 3.5388,2.182798 2.18281,1.190624 0.23152,0.463017 -0.36381,0.793744 -1.68672,1.785931 -0.89296,1.455201 -0.56224,0.859887 -0.69454,0.496097 -0.79375,0.463017 -0.42994,0.793744 1.22369,1.256764 2.51355,1.818998 0.66145,-0.0992 0.23152,-0.793747 -0.82683,-0.892964 0.13229,-0.694527 1.05834,-2.282018 0.79375,-2.315095 0.42995,-1.025254 0.89296,-1.091394 0.1323,-1.190624 -0.82683,-1.256764 -2.91041,-1.918218 -2.01745,-1.157544 -0.3638,-0.595308 0.29765,-2.678906 0.4961,-0.297657 0.16536,0.79375 0.95912,1.091407 2.57968,1.852074 2.84427,1.091404 1.5875,0.694527 1.05834,0.0331 0.89297,0.926044 0.66145,-0.0992 0.66146,-0.29766 V 52.88362 l -0.46302,-0.628387 -0.89297,-0.23151 -0.85989,0.19844 -3.60495,-1.190621 -2.41432,-1.719791 -1.55443,-1.819011 -0.52917,-1.190625 0.76068,-0.09922 1.28984,-0.297657 1.55443,-1.389062 0.92604,-0.56224 1.12448,-0.03307 1.62057,0.595312 1.62058,1.35599 c 0.5574,0.981019 -1.5875,-2.282027 -1.5875,-2.282027 l -1.88516,-1.091406 -0.8599,-1.124479 -0.0661,-1.521354 0.52917,-1.256771 1.32291,-1.124479 1.12448,-0.56224 0.33073,-0.132291 c 0,0 0.36194,-1.199679 0.8599,-1.223698 0.46347,-0.02236 0.67255,0.09325 1.28984,0.429948 0.7276,0.396874 1.55443,0.09922 2.14974,-0.03307 0.21657,-0.04813 0.0661,-0.529167 0.0661,-0.529167 l -1.7198,0.03307 -1.32291,-0.496094 -1.42214,-0.23151 -1.81901,1.885156 -2.38125,1.02526 -1.65364,-0.396875 -1.2237,-1.918229 0.23151,-3.141927 -1.45521,-1.157552 -1.02526,-1.289844 -0.52917,-0.959114 -0.66146,-0.03307 0.16537,0.79375 c 0,0 0.66146,1.157552 1.71979,2.315104 1.05833,1.157552 0.3638,3.96875 0.3638,3.96875 l -0.66146,0.926042 -1.02526,0.562239 h -1.15755 l -1.256765,-1.058333 -1.355989,-1.554427 -2.050521,-0.727604 -2.910417,0.03307 c 0,0 0.05287,0.263418 0.06615,0.396875 0.04032,0.405144 1.88096,0.190989 2.61276,0.297656 1.341468,0.195533 3.010395,1.706714 3.373438,2.877344 0.277086,0.893463 -0.165365,2.282031 -0.165365,2.282031 l -1.620573,1.124479 z"
       id="path97" /><path
       style="fill:none;fill-opacity:1;stroke:#0057b8;stroke-width:0.529167;stroke-linecap:butt;stroke-linejoin:round;stroke-dasharray:none;stroke-opacity:1"
       d="m 91.637735,53.254337 c 0.643376,-0.370757 1.542915,-0.0745 1.426143,0.450337 -0.215056,0.966434 -0.07182,1.696111 -0.364357,2.539485 -0.127073,0.366347 -1.17467,0.577887 -1.43636,-0.0661 -0.408328,-1.004844 -0.08011,-2.661675 0.374574,-2.923742 z"
       id="path98" /><path
       style="display:inline;fill:none;stroke:#0057b8;stroke-width:0.529167;stroke-linecap:butt;stroke-linejoin:miter;stroke-dasharray:none;stroke-opacity:1"
       d="m 92.841665,49.673648 c 0.352691,-0.429536 1.790175,0.172655 1.389526,0.748206 -0.732991,1.052972 -0.439523,2.005466 -1.261263,2.458386 -0.32077,0.176797 -0.914682,0.152237 -1.090242,-0.17102 -0.408923,-0.752957 0.351231,-2.291751 0.961979,-3.035572 z"
       id="path99" /><path
       style="display:inline;fill:#0057b8;fill-opacity:1;stroke:#0057b8;stroke-width:0.0529167;stroke-linecap:butt;stroke-linejoin:miter;stroke-dasharray:none;stroke-opacity:1"
       d="m 115.55677,35.908887 c 0.28344,-0.0732 0.73187,-0.305074 0.65319,-0.587044 -0.16703,-0.598615 -0.8924,-0.146977 -1.33946,-0.115755 -0.67635,0.04724 -1.45771,-0.11154 -1.57922,-0.446484 0.38905,-0.704849 1.32271,-0.977899 1.80247,-1.719792 0.16174,-0.250119 -0.20771,-0.762674 -0.69453,-0.56224 -0.76626,0.315483 -1.09672,1.134152 -1.62058,1.885157 -0.15427,0.218539 -0.91868,0.679659 -0.82682,0.03307 0.10379,-0.730555 0.51801,-1.070126 0.64492,-1.645378 0.088,-0.399056 0.34418,-0.916737 0.0744,-1.223698 -0.16047,-0.182604 -0.53524,-0.19825 -0.7276,-0.04961 -0.41062,0.317284 -0.16974,1.024683 -0.28938,1.529622 -0.37438,1.580104 -0.85258,2.161089 -1.68672,2.910417 -0.72695,0.653033 -1.75928,0.987225 -2.67891,1.190625 -1.89475,0.419076 -2.77238,-1.747798 -2.8112,-2.546615 -0.0287,-0.590211 0.0121,-1.2186 0.26459,-1.752864 0.287,-0.607376 1.27871,-1.278006 2.61276,-2.116667 0.28455,-0.178885 0.19343,-0.792698 -0.16537,-0.826823 -0.70707,-0.06725 -1.25412,1.177778 -1.98437,1.620573 -0.16062,0.09739 -0.59096,0.216088 -0.46302,-0.264583 0.45919,-1.725203 0.76335,-1.441516 0.89296,-2.844271 0.0652,-0.705586 -0.47618,-0.940322 -0.64492,-0.677995 -0.91041,1.41536 -0.31184,3.785406 -1.10794,3.538802 -1.46172,-0.452791 -1.56175,-2.15075 -1.99123,-2.584186 -0.85613,-0.86402 -1.6237,0.560897 -0.93572,0.517129 1.13253,-0.07205 0.68574,0.613899 1.10794,1.190625 0.64733,0.884255 1.7824,1.331901 1.91823,2.38125 0.15286,1.180946 -0.20223,1.927793 0.0992,2.89388 0.54133,1.73501 1.57737,1.939794 2.71198,2.166276 0.89991,0.179636 1.81863,-0.363354 2.64583,-0.760677 0.9981,-0.479415 1.61708,-2.083273 2.71198,-1.918229 1.3775,0.207642 2.27826,1.076887 3.40654,0.785485 z"
       id="path100" /><path
       style="fill:#0057b8;fill-opacity:1;stroke:#0057b8;stroke-width:0.0529167;stroke-linecap:butt;stroke-linejoin:miter;stroke-dasharray:none;stroke-opacity:1"
       d="m 97.399738,34.144573 c -0.145113,-0.935272 -0.02892,-0.75219 0.248047,-1.43549 0.792679,-1.955603 -0.24978,-1.654285 -0.264583,-2.414323 -0.0053,-0.272786 0.632527,-0.219352 0.843359,-0.03307 0.588662,0.520107 0.705109,1.430426 0.198438,2.348177 -0.460292,0.833744 -0.42435,1.251821 -0.429948,1.901693 -0.0038,0.443896 1.457964,2.18668 2.447389,2.530078 1.53295,0.532038 2.74506,-1.322917 2.74506,-1.322917 0,0 -0.62101,2.173543 -2.8112,1.835547 -1.09086,-0.168345 -1.632078,-1.580796 -2.57303,-2.206071 -0.739035,-0.491099 -1.516432,-0.988922 -2.380226,-1.191928 -1.000564,-0.235148 -2.561085,0.469938 -3.083462,0.008 -0.118246,-0.104559 -0.141052,-0.26592 -0.06615,-0.363803 0.396706,-0.518388 1.329185,-0.253056 1.951302,-0.16536 1.082092,0.152535 0.776397,-0.370762 0.628386,-0.694532 -0.420225,-0.919232 -1.439854,-0.89156 -1.471745,-1.620573 -0.0076,-0.172919 0.141202,-0.407697 0.314193,-0.413411 1.066059,-0.03521 1.775146,1.837588 2.10013,2.414323 0.421919,0.748761 1.679185,1.307957 1.60404,0.823634 z"
       id="path101" /><path
       style="fill:#0057b8;fill-opacity:1;stroke:#0057b8;stroke-width:0.0529167;stroke-linecap:butt;stroke-linejoin:miter;stroke-dasharray:none;stroke-opacity:1"
       d="m 98.771124,37.529431 c 0,0 0.26894,2.478925 -1.824115,2.923261 -1.220509,0.259102 -3.615607,-0.25553 -3.917169,-0.689889 -0.642203,-0.925007 -1.655827,-1.982395 -2.069668,-2.011204 -0.421389,-0.02934 -0.83528,0.09888 -0.53788,0.479415 0.232119,0.29701 2.764407,2.075526 2.420458,2.209985 -0.512661,0.200414 -2.069668,-0.549571 -3.063575,-0.245552 -0.99391,0.304017 -0.82857,0.865486 -0.631424,1.145916 0.09503,0.135182 0.563238,0.158163 0.631423,0 0.273272,-0.633889 1.672106,-0.304018 1.976124,-0.233861 0.565679,0.13054 0.629294,0.2309 0.982215,0.268942 0.241712,0.02605 0.654812,-0.08185 0.233862,0.222168 -0.420949,0.304019 -1.964431,1.356393 -1.964431,1.356393 0,0 -1.03742,0.612669 -0.432644,0.865284 0.732233,0.305853 2.147821,-1.566273 2.502312,-1.718878 0.312183,-0.134392 1.092684,-0.678547 0.608038,-0.818513 -0.845759,-0.244255 -0.128624,-0.479414 1.11084,-0.374177 0.877631,0.07452 3.131644,0.503464 3.987327,-1.145918 0.311828,-0.601068 0.134781,-1.486389 -0.01169,-2.233372 z"
       id="path102" /><path
       style="fill:#0057b8;fill-opacity:1;stroke:#0057b8;stroke-width:0.0529167;stroke-linecap:butt;stroke-linejoin:miter;stroke-dasharray:none;stroke-opacity:1"
       d="m 92.959681,42.826379 c 0,0 2.566083,-0.914535 3.858704,-0.374176 1.426552,0.596346 1.241821,1.150545 0.92375,1.917659 -0.293103,0.706896 -2.74801,1.505386 -4.384891,3.928862 -1.195183,1.769522 1.57927,1.612465 1.812422,1.099145 0.182059,-0.400831 2.186598,-2.701092 4.034098,-3.589763 0.231824,-0.11151 1.064066,-0.187088 1.414856,0.08185 0.34058,0.367848 -0.724964,0.325776 -1.344695,2.291837 -0.119521,0.379172 -0.231186,2.356494 -0.07216,3.242643 0.148875,0.829577 0.373838,1.097144 1.007605,1.621651 0.66626,0.551387 5.42828,3.007185 5.30864,3.086942 0,0 0.56787,0.41422 -0.1637,0.841907 -0.76005,0.444327 -1.12974,0.969684 -1.64872,1.894248 -0.55091,0.981464 -0.70159,1.765651 -1.69549,2.619235 -0.16357,0.14047 -0.65481,0.1754 -0.65481,0.1754 0,0 -0.42095,0.12861 -0.77174,0.572947 -0.0936,0.350797 -0.23513,0.968894 -0.0234,1.204374 0.24313,0.270427 0.54456,0.600304 0.94563,0.984084 0.32203,0.308147 1.1731,0.870934 1.76715,1.296051 0.40976,0.29323 1.09024,0.849907 1.23946,0.865287 0.3267,0.0337 1.24449,-0.0987 1.0056,-1.239464 -0.18168,-0.867614 -0.89679,-1.195844 -1.53179,-1.672091 -0.28063,-0.210477 -0.89712,-0.505747 -0.18708,-1.391461 0.7855,-0.979854 3.847,-4.607036 3.847,-4.607036 0,0 1.4593,-1.508841 -0.28063,-3.110332 -1.71298,-1.576691 -5.12155,-3.262342 -5.23848,-3.379274 -0.11693,-0.11693 -0.002,-2.019732 0.0467,-2.478924 0.0473,-0.441876 0.64997,-0.688793 0.87698,-0.818515 0.16371,-0.09354 0.28163,-0.726342 -0.31571,-0.362484 -0.19274,0.117406 -0.99392,0.26894 -1.08746,1.601948 -0.0935,1.333005 -0.17191,1.812346 -0.0819,2.174904 0.0782,0.314793 0.38664,0.301623 0.81851,0.526193 1.16113,0.603764 4.88769,3.238949 5.0397,3.706669 0.26898,0.643104 0.1637,1.251141 -0.44434,1.999498 -0.60803,0.748344 -3.26393,3.818489 -3.87039,4.677193 -0.19148,0.271117 -0.8419,0.257247 -0.1637,0.982204 0.6782,0.724967 0.83211,0.859614 1.26284,1.274534 0.23642,0.227737 0.56936,0.377477 0.72498,0.666504 0.0806,0.14961 0.44433,1.099134 -0.49111,0.724967 -0.93544,-0.374177 -3.11035,-2.432145 -3.11035,-2.432145 0,0 -0.92523,-0.634767 0.28063,-1.262834 0.56127,-0.292337 1.06407,-0.526187 1.27454,-0.818514 0.0707,-0.30991 1.17958,-2.030651 2.08618,-3.201432 0.43048,-0.555927 0.90249,-0.944937 1.03587,-1.078194 0.38437,-0.38403 0.67864,-0.710137 -0.0702,-1.239454 -0.3569,-0.25228 -5.45072,-2.659015 -5.91668,-3.952229 -0.150204,-0.416877 -0.165753,-3.332401 -0.116927,-3.88209 0.585507,-1.412553 1.582677,-1.145886 1.753947,-1.941044 0.10313,-0.478806 -0.47831,-0.847696 -0.99391,-0.947138 -0.38614,-0.07447 -0.923739,-0.09354 -1.496698,0.11693 -0.847921,0.311478 -2.595857,1.742264 -2.87649,2.046283 -0.280633,0.30402 -1.57564,1.907234 -1.742263,2.034589 -0.166623,0.127355 -1.057914,0.338693 -0.840724,-0.645121 0.221004,-1.001091 3.246359,-3.087699 3.927687,-3.447441 0.623001,-0.328946 2.128663,-2.349067 -0.42095,-3.238974 -1.242857,-0.433802 -2.503807,-0.158804 -2.981725,-0.02338 -0.391678,0.110986 -1.274542,0.876977 -1.274542,0.876977 z"
       id="path103" /><path
       style="fill:#0057b8;fill-opacity:1;stroke:#111827;stroke-width:0.0529167;stroke-linecap:butt;stroke-linejoin:miter;stroke-dasharray:none;stroke-opacity:1"
       d="m 101.69922,39.191374 c 0.93027,-0.69231 2.4997,-1.113603 3.45612,0.396875 1.21536,1.919416 -0.48191,3.324578 -1.32292,3.571875 -0.96972,0.285144 -2.4353,-0.363982 -2.66237,-1.008723 -0.29808,-0.846357 -0.27492,-2.361623 0.52917,-2.960027 z"
       id="path104" /><path
       style="fill:#0057b8;fill-opacity:1;stroke:#0057b8;stroke-width:0.0529167;stroke-linecap:butt;stroke-linejoin:miter;stroke-dasharray:none;stroke-opacity:1"
       d="m 102.75845,46.077047 c 0,0 0.95883,0.608036 1.19269,1.145916 0.23386,0.537882 1.19261,3.128931 5.82313,4.65383 2.91158,0.958827 2.35462,0.25234 3.2039,0.39756 0.34269,0.0586 0.6782,0.210477 0.77174,0.701584 0.0935,0.491097 0.18358,0.726527 0.0117,1.005584 -0.12021,0.19523 -0.33909,-0.280627 -0.33909,-0.537877 0,-0.257237 -0.30402,-0.771724 -0.42095,-0.467707 -0.11694,0.30401 0.32687,1.058184 -0.0468,1.216064 -0.28982,0.12245 -0.40414,-0.269197 -0.7016,-0.631417 -0.45432,-0.553217 -0.9809,-0.167707 -1.44994,-0.327407 -0.56127,-0.1911 -0.95408,-0.548417 -1.61364,-0.748347 -2.36605,-0.717214 -6.24408,-2.993415 -6.24408,-4.069175 0,-1.119116 -0.60804,0.07016 -0.60804,0.07016 0,0 1.36738,2.973631 6.47795,4.373195 1.10177,0.301717 1.66041,1.099134 2.73617,0.865274 0,0 0.81851,1.216074 1.56687,1.052364 0.77709,-0.16999 1.10315,-0.400857 1.23946,-1.309614 0.14032,-0.935434 -0.61973,-1.543471 -1.6838,-1.637008 -1.30958,0.350777 -2.02966,-0.2106 -2.47892,-0.32741 -2.33861,-0.608036 -5.85466,-3.696158 -5.7296,-4.840917 0.0573,-0.524151 1.17145,0.03758 2.26846,-1.239462 0.74051,-0.862048 2.17834,-1.411356 3.29743,-0.724969 0.33628,0.206251 -0.0308,1.442359 0.0224,2.263196 0.0895,1.381534 0.12491,2.685546 0.55151,3.024767 0.74666,0.593721 0.98677,0.182454 0.90079,-0.107459 -0.29366,-0.99015 -0.80154,-1.387655 -0.87828,-2.161596 -0.0837,-0.844081 -0.0993,-2.707193 0.47623,-2.499701 0.94785,0.341711 1.01343,3.654452 2.07944,3.043494 0.28985,-0.166118 0.0226,-0.658452 -0.21055,-0.813818 -0.25232,-0.168121 -0.43587,-0.50229 -0.5549,-0.805971 -0.21856,-0.557622 -0.68504,-1.358113 -0.25809,-1.778143 0.39148,-0.385135 1.40882,-0.03129 1.96021,0.336836 0.76388,0.509999 1.5846,0.83704 1.5005,0.22336 -0.0934,-0.681646 -0.69264,-0.612403 -1.11288,-0.783203 -0.83144,-0.337928 -1.99961,-0.295965 -3.00135,-0.429971 -0.81755,-0.109367 -1.60299,-0.205424 -2.45561,-0.305258 -1.38517,-0.162192 -2.17853,0.525515 -2.73782,1.144255 0,0 -0.70159,1.216077 -3.55469,1.028988 z"
       id="path105" /><path
       style="fill:#e5e7ff;fill-opacity:1;stroke:#000000;stroke-width:0;stroke-linecap:butt;stroke-linejoin:miter;stroke-dasharray:none;stroke-opacity:1"
       d="m 105.47124,67.405066 -0.60804,0.561257 0.93544,0.888674 h 0.60804 l 0.28063,-0.420947 -0.0935,-0.514497 z"
       id="path106" /><path
       style="fill:#0057b8;fill-opacity:1;stroke:#0057b8;stroke-width:0.0529167;stroke-linecap:butt;stroke-linejoin:miter;stroke-dasharray:none;stroke-opacity:1"
       d="m 107.18575,58.19238 c -0.66901,2.150695 -1.59116,4.097876 -2.47657,6.032194 l -0.50079,-0.351957 c 0.65087,-1.331864 1.22,-2.680065 1.65073,-4.055949 z"
       id="path107" /><path
       style="fill:#0057b8;fill-opacity:1;stroke:#0057b8;stroke-width:0.0529167;stroke-linecap:butt;stroke-linejoin:miter;stroke-dasharray:none;stroke-opacity:1"
       d="m 105.53568,67.104829 c 0,0 2.22088,0.869094 1.27331,1.852068 -0.70166,0.727877 -2.06706,-0.595307 -2.06706,-0.595307 l -0.14883,-0.429947 c 0,0 0.44648,-0.0496 0.51263,-0.19843 0.0662,-0.148827 0.21497,0.562237 0.81029,0.810277 0.59531,0.248047 0.41341,-0.314187 0.23151,-0.512627 -0.26459,-0.0661 -0.77722,-0.496087 -0.77722,-0.496087 0,0 0.26459,-0.1819 0.16537,-0.429947 z"
       id="path108" /><path
       style="fill:#0057b8;fill-opacity:1;stroke:#0057b8;stroke-width:0.0529167;stroke-linecap:butt;stroke-linejoin:miter;stroke-dasharray:none;stroke-opacity:1"
       d="m 90.752082,56.653846 c 0,0 1.427728,-0.228487 0.926042,0.694527 -0.572932,1.054094 -2.51898,2.657225 -3.307292,3.059222 -0.334386,0.17052 -0.509043,1.306714 -1.157552,1.653641 -0.213621,0.11428 -0.529167,-0.181897 -0.396875,-0.479557 0.132292,-0.297647 0.645968,-0.959254 0.843359,-1.223684 0.09724,-0.130267 -1.074824,0.516497 -1.620572,0.595307 -0.229393,0.0331 -0.479605,-0.508717 -0.181898,-0.661454 0.890855,-0.45707 1.342309,-0.48118 2.265494,-0.727597 1.157552,-0.0662 2.629297,-1.819011 2.629297,-1.819011 0,0 0.264584,-0.463017 -0.694531,-0.363797 -0.959115,0.0992 -2.315009,1.085804 -2.926953,0.892964 -0.501761,-0.158117 -0.578776,-0.777214 0.09922,-0.892964 0.767341,-0.131 0.922667,0.0856 1.008725,-0.0662 0.314858,-0.555397 -0.601239,-0.536317 -0.992188,-0.711064 -0.277489,-0.12403 -0.401859,-0.653717 -0.165365,-0.711067 0.618559,-0.15 1.586928,0.530887 2.38125,0.793744 0.491531,0.16266 1.289844,-0.0331 1.289844,-0.0331 z"
       id="path109" /><path
       style="fill:#0057b8;fill-opacity:1;stroke:#0057b8;stroke-width:0.0447362;stroke-linecap:butt;stroke-linejoin:miter;stroke-dasharray:none;stroke-opacity:1"
       d="m 112.32294,40.029193 c 0.55276,0.578522 0.38366,0.507723 0.52188,1.11552 0.39559,1.739522 0.97294,1.026605 1.35061,1.546589 0.13531,0.186784 -0.33266,0.457907 -0.56894,0.430621 -0.6597,-0.07616 -1.18052,-0.651234 -1.27277,-1.532678 -0.0838,-0.800775 -0.31085,-1.073344 -0.62106,-1.526804 -0.21185,-0.309788 -1.90076,-0.716236 -2.75299,-0.476101 -1.3204,0.372037 0.54353,2.928955 0.54353,2.928955 0,0 -2.6116,-2.616544 -0.92916,-3.440884 0.83794,-0.410564 1.90585,0.331888 2.86719,0.315063 0.75004,-0.01313 1.5298,-0.0472 2.22704,-0.323947 0.80762,-0.320594 1.54909,-1.56398 2.13471,-1.496117 0.13255,0.01536 0.22637,0.116244 0.22169,0.220368 -0.0245,0.551301 -0.79953,0.818049 -1.27341,1.057962 -0.82423,0.417294 -0.35925,0.632468 -0.10008,0.78547 0.73581,0.434406 1.42961,-0.07768 1.80415,0.412522 0.0892,0.116046 0.0991,0.351027 -0.0181,0.43861 -0.72236,0.539763 -2.11948,-0.416361 -2.62367,-0.659273 -0.65459,-0.31535 -1.7969,-0.09542 -1.51066,0.204167 z"
       id="path111" /></g></svg>
